<?xml version="1.0" standalone="no"?>
<!DOCTYPE svg PUBLIC "-//W3C//DTD SVG 20010904//EN"
 "http://www.w3.org/TR/2001/REC-SVG-20010904/DTD/svg10.dtd">
<svg version="1.0" xmlns="http://www.w3.org/2000/svg"
 width="735.000000pt" height="735.000000pt" viewBox="0 0 735.000000 735.000000"
 preserveAspectRatio="xMidYMid meet">
	<g transform="translate(0.000000,735.000000) scale(0.100000,-0.100000)"
	fill="#000000" stroke="none">
		<path d="M4147 7174 c-1 -1 -69 -4 -152 -8 -82 -3 -161 -8 -175 -10 -14 -3
		-52 -7 -85 -11 -53 -6 -276 -43 -360 -60 -80 -16 -330 -90 -390 -116 -11 -4
		-51 -20 -90 -35 -175 -68 -426 -214 -605 -353 -192 -148 -433 -420 -564 -636
		-27 -44 -56 -91 -64 -105 -9 -14 -14 -25 -11 -25 2 0 -5 -13 -16 -30 -57 -83
		-178 -371 -240 -565 -26 -85 -93 -342 -101 -390 -2 -14 -7 -36 -10 -50 -10
		-42 -16 -81 -40 -235 -13 -88 -30 -235 -40 -345 -23 -271 -23 -826 1 -1055 2
		-22 6 -65 9 -95 11 -109 16 -157 32 -260 9 -58 18 -114 20 -125 2 -11 9 -47
		15 -80 35 -200 119 -489 200 -695 305 -767 862 -1303 1604 -1543 107 -34 244
		-73 295 -82 14 -3 36 -7 50 -10 14 -3 48 -10 75 -15 28 -5 59 -11 71 -14 12
		-2 45 -7 75 -11 30 -3 65 -8 79 -10 27 -4 146 -15 225 -21 64 -4 513 -4 585 0
		153 10 238 17 270 21 19 3 60 7 90 10 30 3 66 7 80 10 14 2 49 7 79 10 100 11
		377 65 532 104 270 69 578 182 580 213 0 7 1 816 1 1796 l1 1784 -61 61 -61
		60 -1160 1 -1160 1 -35 -75 c-74 -162 -99 -292 -100 -515 -1 -230 30 -385 109
		-545 l27 -55 549 1 549 1 0 -809 c0 -639 -3 -808 -12 -809 -7 0 -24 -2 -38 -4
		-50 -6 -327 -18 -425 -18 -512 -1 -891 121 -1155 369 -179 169 -325 428 -412
		729 -26 91 -23 81 -53 222 -27 131 -27 131 -44 273 -7 52 -14 109 -16 125 -24
		171 -24 931 0 1025 2 8 6 47 9 85 4 39 8 80 10 90 2 11 7 45 11 75 70 500 247
		900 508 1146 214 202 505 325 857 361 95 10 499 10 605 1 277 -26 569 -79 832
		-154 68 -18 129 -34 137 -34 21 0 159 153 214 235 51 77 122 216 122 237 0 8
		4 18 9 23 12 13 58 175 71 254 15 83 24 215 21 298 -1 25 -79 65 -248 128
		-184 70 -564 167 -733 189 -19 3 -48 7 -65 10 -16 2 -52 7 -80 11 -27 4 -61 8
		-75 10 -14 2 -56 6 -95 10 -38 3 -83 8 -100 10 -56 7 -532 24 -538 19z"/>
	</g>
</svg>
